<mxfile host="app.diagrams.net" modified="2020-07-15T17:32:22.602Z" agent="5.0 (Windows NT 10.0; Win64; x64) AppleWebKit/537.36 (KHTML, like Gecko) Chrome/83.0.4103.116 Safari/537.36" etag="IxxOIkn8WKn6sdhkpGp6" version="13.4.4" type="github">
  <diagram id="GFeKUZp9rRj-hv6Y_ro_" name="Page-1">
    <mxGraphModel dx="1422" dy="794" grid="1" gridSize="10" guides="1" tooltips="1" connect="1" arrows="1" fold="1" page="1" pageScale="1" pageWidth="850" pageHeight="1100" math="0" shadow="0">
      <root>
        <mxCell id="0" />
        <mxCell id="1" parent="0" />
        <mxCell id="HdGhLRdcHTVEejIC9crf-3" style="edgeStyle=orthogonalEdgeStyle;rounded=0;orthogonalLoop=1;jettySize=auto;html=1;exitX=1;exitY=0.5;exitDx=0;exitDy=0;fontFamily=Times New Roman;" parent="1" source="HdGhLRdcHTVEejIC9crf-1" target="HdGhLRdcHTVEejIC9crf-2" edge="1">
          <mxGeometry relative="1" as="geometry" />
        </mxCell>
        <mxCell id="HdGhLRdcHTVEejIC9crf-1" value="Problem Identification" style="rounded=0;whiteSpace=wrap;html=1;fontFamily=Times New Roman;" parent="1" vertex="1">
          <mxGeometry x="70" y="290" width="120" height="60" as="geometry" />
        </mxCell>
        <mxCell id="HdGhLRdcHTVEejIC9crf-5" style="edgeStyle=orthogonalEdgeStyle;rounded=0;orthogonalLoop=1;jettySize=auto;html=1;exitX=1;exitY=0.5;exitDx=0;exitDy=0;entryX=0;entryY=0.5;entryDx=0;entryDy=0;fontFamily=Times New Roman;" parent="1" source="HdGhLRdcHTVEejIC9crf-2" target="HdGhLRdcHTVEejIC9crf-4" edge="1">
          <mxGeometry relative="1" as="geometry" />
        </mxCell>
        <mxCell id="HdGhLRdcHTVEejIC9crf-2" value="Determine Research Purpose" style="rounded=0;whiteSpace=wrap;html=1;fontFamily=Times New Roman;" parent="1" vertex="1">
          <mxGeometry x="220" y="290" width="120" height="60" as="geometry" />
        </mxCell>
        <mxCell id="HdGhLRdcHTVEejIC9crf-7" style="edgeStyle=orthogonalEdgeStyle;rounded=0;orthogonalLoop=1;jettySize=auto;html=1;exitX=1;exitY=0.5;exitDx=0;exitDy=0;entryX=0;entryY=0.5;entryDx=0;entryDy=0;fontFamily=Times New Roman;" parent="1" source="HdGhLRdcHTVEejIC9crf-4" target="HdGhLRdcHTVEejIC9crf-6" edge="1">
          <mxGeometry relative="1" as="geometry" />
        </mxCell>
        <mxCell id="HdGhLRdcHTVEejIC9crf-4" value="Literature Review" style="rounded=0;whiteSpace=wrap;html=1;fontFamily=Times New Roman;" parent="1" vertex="1">
          <mxGeometry x="365" y="290" width="120" height="60" as="geometry" />
        </mxCell>
        <mxCell id="HdGhLRdcHTVEejIC9crf-9" style="edgeStyle=orthogonalEdgeStyle;rounded=0;orthogonalLoop=1;jettySize=auto;html=1;exitX=0.5;exitY=1;exitDx=0;exitDy=0;fontFamily=Times New Roman;" parent="1" source="HdGhLRdcHTVEejIC9crf-6" target="HdGhLRdcHTVEejIC9crf-8" edge="1">
          <mxGeometry relative="1" as="geometry" />
        </mxCell>
        <mxCell id="HdGhLRdcHTVEejIC9crf-6" value="Define Theoretical Framework" style="rounded=0;whiteSpace=wrap;html=1;fontFamily=Times New Roman;" parent="1" vertex="1">
          <mxGeometry x="510" y="290" width="120" height="60" as="geometry" />
        </mxCell>
        <mxCell id="HdGhLRdcHTVEejIC9crf-11" style="edgeStyle=orthogonalEdgeStyle;rounded=0;orthogonalLoop=1;jettySize=auto;html=1;exitX=0;exitY=0.5;exitDx=0;exitDy=0;fontFamily=Times New Roman;" parent="1" source="HdGhLRdcHTVEejIC9crf-8" target="HdGhLRdcHTVEejIC9crf-10" edge="1">
          <mxGeometry relative="1" as="geometry" />
        </mxCell>
        <mxCell id="HdGhLRdcHTVEejIC9crf-8" value="Define Theoretical Framework" style="rounded=0;whiteSpace=wrap;html=1;fontFamily=Times New Roman;" parent="1" vertex="1">
          <mxGeometry x="510" y="380" width="120" height="60" as="geometry" />
        </mxCell>
        <mxCell id="HdGhLRdcHTVEejIC9crf-13" style="edgeStyle=orthogonalEdgeStyle;rounded=0;orthogonalLoop=1;jettySize=auto;html=1;exitX=0;exitY=0.5;exitDx=0;exitDy=0;fontFamily=Times New Roman;" parent="1" source="HdGhLRdcHTVEejIC9crf-10" target="HdGhLRdcHTVEejIC9crf-12" edge="1">
          <mxGeometry relative="1" as="geometry" />
        </mxCell>
        <mxCell id="HdGhLRdcHTVEejIC9crf-10" value="Define Research Methodology" style="rounded=0;whiteSpace=wrap;html=1;fontFamily=Times New Roman;" parent="1" vertex="1">
          <mxGeometry x="365" y="380" width="120" height="60" as="geometry" />
        </mxCell>
        <mxCell id="HdGhLRdcHTVEejIC9crf-15" style="edgeStyle=orthogonalEdgeStyle;rounded=0;orthogonalLoop=1;jettySize=auto;html=1;exitX=0;exitY=0.5;exitDx=0;exitDy=0;fontFamily=Times New Roman;" parent="1" source="HdGhLRdcHTVEejIC9crf-12" target="HdGhLRdcHTVEejIC9crf-14" edge="1">
          <mxGeometry relative="1" as="geometry" />
        </mxCell>
        <mxCell id="HdGhLRdcHTVEejIC9crf-12" value="Data Collection" style="rounded=0;whiteSpace=wrap;html=1;fontFamily=Times New Roman;" parent="1" vertex="1">
          <mxGeometry x="220" y="380" width="120" height="60" as="geometry" />
        </mxCell>
        <mxCell id="HdGhLRdcHTVEejIC9crf-17" style="edgeStyle=orthogonalEdgeStyle;rounded=0;orthogonalLoop=1;jettySize=auto;html=1;exitX=0.5;exitY=1;exitDx=0;exitDy=0;fontFamily=Times New Roman;" parent="1" source="HdGhLRdcHTVEejIC9crf-14" target="HdGhLRdcHTVEejIC9crf-16" edge="1">
          <mxGeometry relative="1" as="geometry" />
        </mxCell>
        <mxCell id="HdGhLRdcHTVEejIC9crf-14" value="Data Preprocessing" style="rounded=0;whiteSpace=wrap;html=1;fontFamily=Times New Roman;" parent="1" vertex="1">
          <mxGeometry x="70" y="380" width="120" height="60" as="geometry" />
        </mxCell>
        <mxCell id="HdGhLRdcHTVEejIC9crf-19" style="edgeStyle=orthogonalEdgeStyle;rounded=0;orthogonalLoop=1;jettySize=auto;html=1;exitX=1;exitY=0.5;exitDx=0;exitDy=0;fontFamily=Times New Roman;" parent="1" source="HdGhLRdcHTVEejIC9crf-16" target="HdGhLRdcHTVEejIC9crf-18" edge="1">
          <mxGeometry relative="1" as="geometry" />
        </mxCell>
        <mxCell id="HdGhLRdcHTVEejIC9crf-16" value="Sentiment Analysis" style="rounded=0;whiteSpace=wrap;html=1;fontFamily=Times New Roman;" parent="1" vertex="1">
          <mxGeometry x="70" y="470" width="120" height="60" as="geometry" />
        </mxCell>
        <mxCell id="HdGhLRdcHTVEejIC9crf-21" style="edgeStyle=orthogonalEdgeStyle;rounded=0;orthogonalLoop=1;jettySize=auto;html=1;exitX=1;exitY=0.5;exitDx=0;exitDy=0;fontFamily=Times New Roman;" parent="1" source="HdGhLRdcHTVEejIC9crf-18" target="HdGhLRdcHTVEejIC9crf-20" edge="1">
          <mxGeometry relative="1" as="geometry" />
        </mxCell>
        <mxCell id="HdGhLRdcHTVEejIC9crf-18" value="Multiclass Text Classification&lt;br&gt;(Service Quality Dimension)" style="rounded=0;whiteSpace=wrap;html=1;fontFamily=Times New Roman;" parent="1" vertex="1">
          <mxGeometry x="220" y="470" width="120" height="60" as="geometry" />
        </mxCell>
        <mxCell id="HdGhLRdcHTVEejIC9crf-20" value="Result Interpretation" style="rounded=0;whiteSpace=wrap;html=1;fontFamily=Times New Roman;" parent="1" vertex="1">
          <mxGeometry x="365" y="470" width="120" height="60" as="geometry" />
        </mxCell>
      </root>
    </mxGraphModel>
  </diagram>
</mxfile>
